<?xml version="1.0" standalone="no"?>
<!DOCTYPE svg PUBLIC "-//W3C//DTD SVG 20010904//EN"
 "http://www.w3.org/TR/2001/REC-SVG-20010904/DTD/svg10.dtd">
<svg version="1.0" xmlns="http://www.w3.org/2000/svg"
 width="311.000000pt" height="311.000000pt" viewBox="0 0 311.000000 311.000000"
 preserveAspectRatio="xMidYMid meet">
<metadata>
Created by potrace 1.11, written by Peter Selinger 2001-2013
</metadata>
<g transform="translate(0.000000,311.000000) scale(0.100000,-0.100000)"
fill="#000000" stroke="none">
<path d="M1420 3092 c-76 -6 -256 -44 -343 -73 -291 -96 -569 -293 -746 -529
-81 -107 -103 -144 -159 -261 -111 -231 -162 -465 -155 -710 15 -605 390
-1153 946 -1383 192 -80 364 -111 602 -110 354 1 673 115 940 334 85 70 205
193 267 275 109 144 218 375 265 561 26 105 27 119 27 364 0 255 0 255 -31
371 -83 303 -189 486 -412 710 -151 150 -247 220 -412 298 -200 96 -360 138
-559 147 -179 9 -193 9 -230 6z m430 -286 c245 -65 421 -162 580 -317 186
-182 301 -381 367 -638 25 -97 28 -122 28 -291 0 -169 -3 -195 -27 -293 -63
-248 -174 -444 -353 -622 -118 -119 -235 -199 -387 -267 -124 -56 -168 -67
-185 -46 -6 7 -29 71 -51 143 -57 187 -104 306 -194 499 -116 248 -149 338
-155 422 -5 68 -4 73 18 84 16 9 102 14 283 17 210 3 276 8 338 23 175 43 275
118 351 265 36 69 41 108 21 152 -31 64 -96 117 -201 163 -75 32 -114 57 -163
102 -145 132 -217 178 -350 220 -67 20 -93 23 -240 22 -142 -1 -178 -5 -261
-27 -185 -48 -325 -130 -460 -267 -102 -103 -180 -217 -248 -361 -66 -138 -86
-202 -126 -404 -42 -212 -43 -218 -44 -282 -1 -72 -22 -70 -49 5 -114 311
-100 693 35 982 147 314 446 584 763 688 157 52 233 62 430 58 158 -4 199 -8
280 -30z m-382 -517 c33 -11 68 -54 53 -64 -5 -3 -29 0 -53 6 -79 21 -118 -7
-118 -84 0 -56 23 -77 85 -77 30 0 57 -5 60 -10 7 -12 -54 -40 -87 -40 -70 0
-145 91 -133 160 17 93 101 141 193 109z m419 -140 c54 -26 93 -71 86 -99 -9
-36 -51 -60 -103 -60 -43 0 -51 4 -85 41 -22 24 -34 47 -31 56 3 8 6 21 6 29
0 21 37 54 62 54 12 0 41 -9 65 -21z m489 -203 c71 -33 86 -73 53 -137 -44
-87 -221 -193 -374 -224 -91 -19 -267 -21 -390 -5 -44 6 -100 13 -125 16 -25
3 -51 7 -58 10 -20 6 -81 -25 -93 -48 -15 -28 -9 -172 11 -248 21 -83 69 -236
86 -275 7 -16 24 -61 38 -98 14 -37 46 -116 72 -175 53 -121 125 -328 145
-416 12 -53 11 -60 -5 -71 -18 -14 -180 -29 -231 -21 -16 2 -35 4 -41 5 -16 2
-27 32 -64 166 -18 66 -65 197 -105 290 -40 94 -99 246 -130 339 -57 168 -57
168 -58 295 -1 114 1 130 22 170 45 86 138 167 221 194 50 16 157 17 255 4 57
-8 160 -13 240 -12 116 2 150 6 198 25 98 37 187 120 187 175 0 30 36 65 68
65 15 0 50 -11 78 -24z"/>
</g>
</svg>
